<svg xmlns="http://www.w3.org/2000/svg" xmlns:xlink="http://www.w3.org/1999/xlink" width="1920" zoomAndPan="magnify" viewBox="0 0 1440 809.999993" height="1080" preserveAspectRatio="xMidYMid meet" version="1.2"><defs><clipPath id="3fca5d5208"><path d="M 442 0.398438 L 531.441406 0.398438 L 531.441406 311.28125 L 442 311.28125 Z M 442 0.398438 "/></clipPath><clipPath id="0e7093724d"><path d="M 178.03125 85.695312 L 354.5 85.695312 L 354.5 348.667969 L 178.03125 348.667969 Z M 178.03125 85.695312 "/></clipPath><clipPath id="157b50c90f"><path d="M 0.558594 0.398438 L 150 0.398438 L 150 311.28125 L 0.558594 311.28125 Z M 0.558594 0.398438 "/></clipPath><clipPath id="27d82788ce"><path d="M 101 73 L 149.601562 73 L 149.601562 239 L 101 239 Z M 101 73 "/></clipPath><clipPath id="8cc42538fa"><path d="M 0.558594 0.398438 L 90 0.398438 L 90 311.28125 L 0.558594 311.28125 Z M 0.558594 0.398438 "/></clipPath><clipPath id="d1b03a4133"><rect x="0" width="150" y="0" height="312"/></clipPath><clipPath id="82c079e58d"><rect x="0" width="532" y="0" height="353"/></clipPath></defs><g id="b2e1e5c2de"><g transform="matrix(1,0,0,1,454,230)"><g clip-path="url(#82c079e58d)"><path style=" stroke:none;fill-rule:nonzero;fill:#231f20;fill-opacity:1;" d="M 392.804688 75.976562 C 402.101562 83.96875 409.796875 93.65625 415.601562 104.425781 C 421.402344 115.199219 425.289062 126.976562 427.011719 139.078125 C 428.707031 151.003906 428.117188 163.199219 425.339844 174.90625 C 422.585938 186.535156 417.765625 197.601562 411.222656 207.585938 C 404.730469 217.523438 396.492188 226.375 386.925781 233.40625 C 385.722656 234.292969 384.492188 235.152344 383.238281 235.988281 C 381.664062 237.046875 383.140625 239.605469 384.738281 238.546875 C 394.992188 231.6875 403.894531 222.980469 411.101562 212.996094 C 418.28125 203.0625 423.714844 191.824219 427.058594 180.042969 C 430.429688 168.167969 431.632812 155.675781 430.476562 143.378906 C 429.296875 130.839844 425.832031 118.59375 420.371094 107.253906 C 414.9375 95.945312 407.4375 85.589844 398.3125 76.960938 C 397.207031 75.902344 396.050781 74.871094 394.894531 73.886719 C 394.28125 73.371094 393.394531 73.296875 392.804688 73.886719 C 392.265625 74.425781 392.191406 75.460938 392.804688 75.976562 Z M 392.804688 75.976562 "/><path style=" stroke:none;fill-rule:nonzero;fill:#231f20;fill-opacity:1;" d="M 427.257812 41.304688 C 440.535156 52.738281 451.578125 66.605469 459.890625 82.023438 C 468.199219 97.417969 473.78125 114.289062 476.242188 131.625 C 478.675781 148.765625 477.839844 166.273438 473.855469 183.117188 C 469.921875 199.742188 463.011719 215.628906 453.644531 229.914062 C 444.296875 244.179688 432.46875 256.890625 418.722656 267 C 417.003906 268.253906 415.257812 269.480469 413.484375 270.6875 C 411.910156 271.746094 413.386719 274.300781 414.984375 273.246094 C 429.519531 263.53125 442.160156 251.160156 452.386719 236.996094 C 462.59375 222.859375 470.339844 206.898438 475.109375 190.101562 C 479.929688 173.183594 481.601562 155.453125 479.953125 137.945312 C 478.28125 120.191406 473.363281 102.78125 465.617188 86.722656 C 457.847656 70.613281 447.222656 55.859375 434.242188 43.589844 C 432.640625 42.089844 431.019531 40.613281 429.371094 39.1875 C 427.921875 37.984375 425.832031 40.046875 427.257812 41.304688 Z M 427.257812 41.304688 "/><g clip-rule="nonzero" clip-path="url(#3fca5d5208)"><path style=" stroke:none;fill-rule:nonzero;fill:#231f20;fill-opacity:1;" d="M 461.191406 3.1875 C 478.871094 18.410156 493.578125 36.902344 504.644531 57.410156 C 515.710938 77.917969 523.136719 100.371094 526.40625 123.460938 C 529.652344 146.304688 528.570312 169.691406 523.234375 192.144531 C 517.972656 214.277344 508.777344 235.421875 496.308594 254.457031 C 483.839844 273.492188 468.054688 290.433594 449.734375 303.910156 C 447.445312 305.582031 445.109375 307.230469 442.75 308.804688 C 441.175781 309.859375 442.652344 312.417969 444.25 311.359375 C 463.503906 298.5 480.226562 282.121094 493.773438 263.359375 C 507.324219 244.597656 517.605469 223.421875 523.921875 201.167969 C 530.316406 178.742188 532.53125 155.207031 530.34375 131.96875 C 528.128906 108.460938 521.613281 85.417969 511.359375 64.125 C 501.078125 42.777344 486.964844 23.203125 469.75 6.925781 C 467.636719 4.933594 465.472656 2.988281 463.257812 1.097656 C 461.855469 -0.132812 459.742188 1.933594 461.191406 3.1875 Z M 461.191406 3.1875 "/></g><g clip-rule="nonzero" clip-path="url(#0e7093724d)"><path style=" stroke:none;fill-rule:nonzero;fill:#000000;fill-opacity:1;" d="M 266.28125 269.203125 C 295.632812 269.203125 319.511719 245.453125 319.511719 216.265625 L 319.511719 138.632812 C 319.511719 109.441406 295.632812 85.695312 266.28125 85.695312 C 236.925781 85.695312 213.046875 109.441406 213.046875 138.632812 L 213.046875 216.265625 C 213.046875 245.453125 236.925781 269.203125 266.28125 269.203125 Z M 221.988281 138.632812 C 221.988281 114.34375 241.859375 94.585938 266.28125 94.585938 C 290.699219 94.585938 310.570312 114.34375 310.570312 138.632812 L 310.570312 216.265625 C 310.570312 240.550781 290.699219 260.308594 266.28125 260.308594 C 241.859375 260.308594 221.988281 240.550781 221.988281 216.265625 Z M 270.75 304.054688 L 270.75 339.796875 L 331.914062 339.796875 C 334.382812 339.796875 336.386719 341.789062 336.386719 344.246094 C 336.386719 346.699219 334.382812 348.691406 331.914062 348.691406 L 200.644531 348.691406 C 198.175781 348.691406 196.171875 346.699219 196.171875 344.246094 C 196.171875 341.789062 198.175781 339.796875 200.644531 339.796875 L 261.808594 339.796875 L 261.808594 304.054688 C 215.671875 303.976562 178.160156 265.828125 178.160156 218.949219 L 178.160156 207.953125 C 178.160156 205.5 180.164062 203.507812 182.632812 203.507812 C 185.101562 203.507812 187.101562 205.5 187.101562 207.953125 L 187.101562 218.949219 C 187.101562 239.234375 194.925781 258.363281 209.128906 272.808594 C 223.304688 287.226562 242.066406 295.164062 261.949219 295.164062 L 270.609375 295.164062 C 290.492188 295.164062 309.253906 287.226562 323.429688 272.808594 C 337.632812 258.363281 345.457031 239.234375 345.457031 218.949219 L 345.457031 207.953125 C 345.457031 205.5 347.457031 203.507812 349.925781 203.507812 C 352.394531 203.507812 354.398438 205.5 354.398438 207.953125 L 354.398438 218.949219 C 354.398438 265.828125 316.886719 303.976562 270.75 304.054688 Z M 270.75 304.054688 "/></g><g clip-rule="nonzero" clip-path="url(#157b50c90f)"><g transform="matrix(1,0,0,1,0,0.000000000000028422)"><g id="e52c490886" clip-path="url(#d1b03a4133)"><g clip-rule="nonzero" clip-path="url(#27d82788ce)"><path style=" stroke:none;fill-rule:nonzero;fill:#231f20;fill-opacity:1;" d="M 139.140625 75.976562 C 129.847656 83.96875 122.148438 93.65625 116.347656 104.425781 C 110.542969 115.199219 106.65625 126.976562 104.9375 139.078125 C 103.238281 151.003906 103.828125 163.199219 106.609375 174.90625 C 109.363281 186.535156 114.183594 197.601562 120.722656 207.585938 C 127.214844 217.523438 135.453125 226.375 145.019531 233.40625 C 146.222656 234.292969 147.453125 235.152344 148.707031 235.988281 C 150.28125 237.046875 148.804688 239.605469 147.207031 238.546875 C 136.953125 231.6875 128.050781 222.980469 120.847656 212.996094 C 113.667969 203.0625 108.230469 191.824219 104.886719 180.042969 C 101.519531 168.167969 100.3125 155.675781 101.46875 143.378906 C 102.648438 130.839844 106.117188 118.59375 111.574219 107.253906 C 117.011719 95.945312 124.511719 85.589844 133.632812 76.960938 C 134.742188 75.902344 135.894531 74.871094 137.050781 73.886719 C 137.667969 73.371094 138.550781 73.296875 139.140625 73.886719 C 139.683594 74.425781 139.757812 75.460938 139.140625 75.976562 Z M 139.140625 75.976562 "/></g><path style=" stroke:none;fill-rule:nonzero;fill:#231f20;fill-opacity:1;" d="M 104.691406 41.304688 C 91.410156 52.738281 80.371094 66.605469 72.058594 82.023438 C 63.746094 97.417969 58.164062 114.289062 55.707031 131.625 C 53.269531 148.765625 54.105469 166.273438 58.089844 183.117188 C 62.023438 199.742188 68.933594 215.628906 78.304688 229.914062 C 87.648438 244.179688 99.476562 256.890625 113.222656 267 C 114.945312 268.253906 116.691406 269.480469 118.460938 270.6875 C 120.035156 271.746094 118.558594 274.300781 116.960938 273.246094 C 102.429688 263.53125 89.789062 251.160156 79.558594 236.996094 C 69.351562 222.859375 61.605469 206.898438 56.835938 190.101562 C 52.015625 173.183594 50.34375 155.453125 51.992188 137.945312 C 53.664062 120.191406 58.582031 102.78125 66.328125 86.722656 C 74.097656 70.613281 84.722656 55.859375 97.707031 43.589844 C 99.304688 42.089844 100.929688 40.613281 102.574219 39.1875 C 104.027344 37.984375 106.117188 40.046875 104.691406 41.304688 Z M 104.691406 41.304688 "/><g clip-rule="nonzero" clip-path="url(#8cc42538fa)"><path style=" stroke:none;fill-rule:nonzero;fill:#231f20;fill-opacity:1;" d="M 70.753906 3.1875 C 53.074219 18.410156 38.367188 36.902344 27.300781 57.410156 C 16.238281 77.917969 8.808594 100.371094 5.539062 123.460938 C 2.292969 146.304688 3.375 169.691406 8.710938 192.144531 C 13.972656 214.277344 23.171875 235.421875 35.640625 254.457031 C 48.105469 273.492188 63.894531 290.433594 82.214844 303.910156 C 84.5 305.582031 86.835938 307.230469 89.199219 308.804688 C 90.773438 309.859375 89.296875 312.417969 87.699219 311.359375 C 68.441406 298.5 51.722656 282.121094 38.171875 263.359375 C 24.621094 244.597656 14.34375 223.421875 8.023438 201.167969 C 1.628906 178.742188 -0.582031 155.207031 1.605469 131.96875 C 3.816406 108.460938 10.335938 85.417969 20.589844 64.125 C 30.867188 42.777344 44.984375 23.203125 62.195312 6.925781 C 64.3125 4.933594 66.476562 2.988281 68.6875 1.097656 C 70.089844 -0.132812 72.207031 1.933594 70.753906 3.1875 Z M 70.753906 3.1875 "/></g></g></g></g></g></g></g></svg>