<svg xmlns="http://www.w3.org/2000/svg" xmlns:xlink="http://www.w3.org/1999/xlink" width="1920" zoomAndPan="magnify" viewBox="0 0 1440 809.999993" height="1080" preserveAspectRatio="xMidYMid meet" version="1.2"><defs><clipPath id="8c65f46c28"><path d="M 617.054688 251.265625 L 821.804688 251.265625 L 821.804688 557.265625 L 617.054688 557.265625 Z M 617.054688 251.265625 "/></clipPath></defs><g id="81a5b92ef6"><g clip-rule="nonzero" clip-path="url(#8c65f46c28)"><path style=" stroke:none;fill-rule:nonzero;fill:#000000;fill-opacity:1;" d="M 719.445312 464.800781 C 753.503906 464.800781 781.214844 437.167969 781.214844 403.199219 L 781.214844 312.867188 C 781.214844 278.898438 753.503906 251.265625 719.445312 251.265625 C 685.382812 251.265625 657.675781 278.898438 657.675781 312.867188 L 657.675781 403.199219 C 657.675781 437.167969 685.382812 464.800781 719.445312 464.800781 Z M 668.050781 312.867188 C 668.050781 284.605469 691.105469 261.613281 719.445312 261.613281 C 747.785156 261.613281 770.839844 284.605469 770.839844 312.867188 L 770.839844 403.199219 C 770.839844 431.460938 747.785156 454.453125 719.445312 454.453125 C 691.105469 454.453125 668.050781 431.460938 668.050781 403.199219 Z M 724.632812 505.355469 L 724.632812 546.945312 L 795.609375 546.945312 C 798.472656 546.945312 800.796875 549.261719 800.796875 552.121094 C 800.796875 554.976562 798.472656 557.292969 795.609375 557.292969 L 643.28125 557.292969 C 640.414062 557.292969 638.09375 554.976562 638.09375 552.121094 C 638.09375 549.261719 640.414062 546.945312 643.28125 546.945312 L 714.257812 546.945312 L 714.257812 505.355469 C 660.71875 505.261719 617.191406 460.875 617.191406 406.324219 L 617.191406 393.53125 C 617.191406 390.671875 619.515625 388.355469 622.378906 388.355469 C 625.246094 388.355469 627.566406 390.671875 627.566406 393.53125 L 627.566406 406.324219 C 627.566406 429.929688 636.644531 452.1875 653.125 468.996094 C 669.578125 485.769531 691.34375 495.007812 714.421875 495.007812 L 724.46875 495.007812 C 747.542969 495.007812 769.3125 485.769531 785.761719 468.996094 C 802.242188 452.1875 811.320312 429.929688 811.320312 406.324219 L 811.320312 393.53125 C 811.320312 390.671875 813.644531 388.355469 816.507812 388.355469 C 819.375 388.355469 821.695312 390.671875 821.695312 393.53125 L 821.695312 406.324219 C 821.695312 460.875 778.167969 505.261719 724.632812 505.355469 Z M 724.632812 505.355469 "/></g></g></svg>